<mxfile host="Electron" modified="2023-09-08T18:36:43.402Z" agent="Mozilla/5.0 (Windows NT 10.0; Win64; x64) AppleWebKit/537.36 (KHTML, like Gecko) draw.io/21.3.7 Chrome/112.0.5615.204 Electron/24.5.0 Safari/537.36" etag="KaZoCXm4JXRTzXWEVA9G" version="21.3.7" type="device">
  <diagram name="Page-1" id="wFXgcUgZ8-Bqtv0aW6ye">
    <mxGraphModel dx="1036" dy="614" grid="1" gridSize="10" guides="1" tooltips="1" connect="1" arrows="1" fold="1" page="1" pageScale="1" pageWidth="900" pageHeight="1600" background="#ffffff" math="0" shadow="0">
      <root>
        <mxCell id="0" />
        <mxCell id="1" parent="0" />
        <mxCell id="taKEhzusKT8JaLBKp9uH-1" value="" style="shape=cylinder3;whiteSpace=wrap;html=1;boundedLbl=1;backgroundOutline=1;size=6.199981689453125;" parent="1" vertex="1">
          <mxGeometry x="390" y="339" width="200" height="120" as="geometry" />
        </mxCell>
        <mxCell id="taKEhzusKT8JaLBKp9uH-2" value="" style="image;aspect=fixed;perimeter=ellipsePerimeter;html=1;align=center;shadow=0;dashed=0;spacingTop=3;image=img/lib/active_directory/documents.svg;" parent="1" vertex="1">
          <mxGeometry x="410" y="389" width="33" height="50" as="geometry" />
        </mxCell>
        <mxCell id="taKEhzusKT8JaLBKp9uH-4" value="&lt;b&gt;Product &amp;amp; Services&lt;/b&gt;&amp;nbsp;&lt;br&gt;Architecture, User Documentation" style="text;html=1;align=center;verticalAlign=middle;resizable=0;points=[];autosize=1;strokeColor=none;fillColor=none;" parent="1" vertex="1">
          <mxGeometry x="10" y="389" width="200" height="40" as="geometry" />
        </mxCell>
        <mxCell id="taKEhzusKT8JaLBKp9uH-5" value="Ingest using RFP Analyzer" style="html=1;shadow=0;dashed=0;align=center;verticalAlign=middle;shape=mxgraph.arrows2.arrow;dy=0.6;dx=40;notch=0;" parent="1" vertex="1">
          <mxGeometry x="210" y="374" width="160" height="70" as="geometry" />
        </mxCell>
        <mxCell id="taKEhzusKT8JaLBKp9uH-6" value="" style="image;aspect=fixed;perimeter=ellipsePerimeter;html=1;align=center;shadow=0;dashed=0;spacingTop=3;image=img/lib/active_directory/documents.svg;" parent="1" vertex="1">
          <mxGeometry x="530" y="389" width="33" height="50" as="geometry" />
        </mxCell>
        <mxCell id="taKEhzusKT8JaLBKp9uH-7" value="Ingest using RFP Analyzer" style="html=1;shadow=0;dashed=0;align=center;verticalAlign=middle;shape=mxgraph.arrows2.arrow;dy=0.6;dx=40;flipH=1;notch=0;" parent="1" vertex="1">
          <mxGeometry x="590" y="374" width="160" height="75" as="geometry" />
        </mxCell>
        <mxCell id="taKEhzusKT8JaLBKp9uH-9" value="&lt;b&gt;Previous Solutions&lt;br&gt;&lt;/b&gt;Architecture" style="text;html=1;align=center;verticalAlign=middle;resizable=0;points=[];autosize=1;strokeColor=none;fillColor=none;" parent="1" vertex="1">
          <mxGeometry x="750" y="389" width="130" height="40" as="geometry" />
        </mxCell>
        <mxCell id="taKEhzusKT8JaLBKp9uH-11" value="Vector Database" style="text;html=1;align=center;verticalAlign=middle;resizable=0;points=[];autosize=1;strokeColor=none;fillColor=none;fontStyle=1" parent="1" vertex="1">
          <mxGeometry x="425" y="349" width="120" height="30" as="geometry" />
        </mxCell>
        <mxCell id="taKEhzusKT8JaLBKp9uH-12" value="" style="shadow=0;dashed=0;html=1;strokeColor=none;fillColor=#4495D1;labelPosition=center;verticalLabelPosition=bottom;verticalAlign=top;align=center;outlineConnect=0;shape=mxgraph.veeam.2d.web_ui;aspect=fixed;" parent="1" vertex="1">
          <mxGeometry x="425" y="159" width="130" height="130" as="geometry" />
        </mxCell>
        <mxCell id="taKEhzusKT8JaLBKp9uH-13" value="read" style="html=1;shadow=0;dashed=0;align=center;verticalAlign=middle;shape=mxgraph.arrows2.arrow;dy=0.6;dx=40;direction=north;notch=0;" parent="1" vertex="1">
          <mxGeometry x="455" y="279" width="70" height="70" as="geometry" />
        </mxCell>
        <mxCell id="taKEhzusKT8JaLBKp9uH-16" value="Read" style="edgeStyle=orthogonalEdgeStyle;rounded=0;orthogonalLoop=1;jettySize=auto;html=1;exitX=0.5;exitY=0.5;exitDx=0;exitDy=0;exitPerimeter=0;dashed=1;" parent="1" source="taKEhzusKT8JaLBKp9uH-14" target="taKEhzusKT8JaLBKp9uH-15" edge="1">
          <mxGeometry relative="1" as="geometry" />
        </mxCell>
        <mxCell id="taKEhzusKT8JaLBKp9uH-17" value="query" style="edgeStyle=orthogonalEdgeStyle;rounded=0;orthogonalLoop=1;jettySize=auto;html=1;" parent="1" source="taKEhzusKT8JaLBKp9uH-14" target="taKEhzusKT8JaLBKp9uH-12" edge="1">
          <mxGeometry relative="1" as="geometry" />
        </mxCell>
        <mxCell id="taKEhzusKT8JaLBKp9uH-14" value="Actor" style="shape=umlActor;verticalLabelPosition=bottom;verticalAlign=top;html=1;outlineConnect=0;" parent="1" vertex="1">
          <mxGeometry x="475" y="29" width="30" height="60" as="geometry" />
        </mxCell>
        <mxCell id="taKEhzusKT8JaLBKp9uH-15" value="RFP" style="sketch=0;outlineConnect=0;fontColor=#232F3E;gradientColor=none;fillColor=#B0084D;strokeColor=none;dashed=0;verticalLabelPosition=bottom;verticalAlign=top;align=center;html=1;fontSize=12;fontStyle=0;aspect=fixed;pointerEvents=1;shape=mxgraph.aws4.documents;" parent="1" vertex="1">
          <mxGeometry x="230" y="20" width="64" height="78" as="geometry" />
        </mxCell>
        <mxCell id="taKEhzusKT8JaLBKp9uH-18" value="OpenAI based&lt;br&gt;Query Interface" style="text;html=1;align=center;verticalAlign=middle;resizable=0;points=[];autosize=1;strokeColor=none;fillColor=none;fontStyle=1" parent="1" vertex="1">
          <mxGeometry x="435" y="154" width="110" height="40" as="geometry" />
        </mxCell>
      </root>
    </mxGraphModel>
  </diagram>
</mxfile>
